<svg width="22" height="20" viewBox="0 0 22 20" fill="none" xmlns="http://www.w3.org/2000/svg">
<path d="M15.0253 18.5707L15.0256 15.357C15.0258 13.5818 13.5867 12.1426 11.8115 12.1426H4.61432C2.83939 12.1426 1.40046 13.5814 1.40026 15.3563L1.3999 18.5707M20.5996 18.5709L20.5999 15.3571C20.6001 13.5819 19.161 12.1428 17.3858 12.1428M14.4062 2.0605C15.1955 2.64614 15.7071 3.585 15.7071 4.64333C15.7071 5.70166 15.1955 6.64051 14.4062 7.22615M11.4937 4.64315C11.4937 6.41823 10.0547 7.85721 8.27964 7.85721C6.50457 7.85721 5.06559 6.41823 5.06559 4.64315C5.06559 2.86808 6.50457 1.4291 8.27964 1.4291C10.0547 1.4291 11.4937 2.86808 11.4937 4.64315Z" stroke="#B39DDB" stroke-width="2" stroke-linecap="round" stroke-linejoin="round"/>
</svg>
